<svg width="828" height="895" viewBox="0 0 828 895" fill="none" xmlns="http://www.w3.org/2000/svg">
<mask id="mask0_606_1033" style="mask-type:luminance" maskUnits="userSpaceOnUse" x="0" y="0" width="828" height="895">
<path d="M827.48 0.150391H0.589844V894.85H827.48V0.150391Z" fill="white"/>
</mask>
<g mask="url(#mask0_606_1033)">
<path d="M778.189 792.48C743.189 792.48 712.869 816.74 705.189 850.88L689.029 922.72H810.549L826.309 852.63C833.249 821.79 809.789 792.48 778.179 792.48H778.189Z" stroke="#FEECD0" stroke-opacity="0.3" stroke-miterlimit="10"/>
<path d="M652.389 707.49C625.789 707.49 602.749 725.93 596.919 751.87L565.439 891.85H650.129L682.989 745.72C687.399 726.12 672.489 707.48 652.399 707.48L652.389 707.49Z" stroke="#FEECD0" stroke-opacity="0.3" stroke-miterlimit="10"/>
<path d="M466.459 865.101C504.059 865.101 536.639 839.041 544.889 802.351L560.069 734.851H438.549L421.809 809.281C415.379 837.891 437.139 865.091 466.459 865.091V865.101Z" stroke="#FEECD0" stroke-opacity="0.3" stroke-miterlimit="10"/>
<path d="M126.05 927.301C169.144 927.301 204.079 906.768 204.079 881.441C204.079 856.113 169.144 835.581 126.05 835.581C82.9548 835.581 48.0195 856.113 48.0195 881.441C48.0195 906.768 82.9548 927.301 126.05 927.301Z" stroke="#FEECD0" stroke-opacity="0.3" stroke-miterlimit="10"/>
<path d="M341.03 796C375.001 796 402.54 768.462 402.54 734.49C402.54 700.519 375.001 672.98 341.03 672.98C307.059 672.98 279.52 700.519 279.52 734.49C279.52 768.462 307.059 796 341.03 796Z" stroke="#FEECD0" stroke-opacity="0.3" stroke-miterlimit="10"/>
<path d="M247.82 654.68H91.7396C64.8796 654.68 41.6197 673.32 35.7797 699.53C27.7897 735.35 55.0396 769.35 91.7396 769.35H222.24L247.82 654.67V654.68Z" stroke="#FEECD0" stroke-opacity="0.3" stroke-miterlimit="10"/>
<path d="M-48.7004 792.48C-83.7004 792.48 -114.02 816.74 -121.7 850.88L-137.86 922.72H-16.3403L-0.580383 852.63C6.35962 821.79 -17.1004 792.48 -48.7104 792.48H-48.7004Z" stroke="#FEECD0" stroke-opacity="0.3" stroke-miterlimit="10"/>
<path d="M330.3 824.61C295.3 824.61 264.98 848.87 257.3 883.01L241.14 954.85H362.66L378.42 884.76C385.36 853.92 361.9 824.61 330.29 824.61H330.3Z" stroke="#FEECD0" stroke-opacity="0.3" stroke-miterlimit="10"/>
<path d="M539.5 479.95C582.595 479.95 617.53 459.418 617.53 434.09C617.53 408.763 582.595 388.23 539.5 388.23C496.405 388.23 461.47 408.763 461.47 434.09C461.47 459.418 496.405 479.95 539.5 479.95Z" stroke="#FEECD0" stroke-opacity="0.3" stroke-miterlimit="10"/>
<path d="M356.84 637.88C394.666 637.88 425.33 613.713 425.33 583.9C425.33 554.088 394.666 529.92 356.84 529.92C319.014 529.92 288.35 554.088 288.35 583.9C288.35 613.713 319.014 637.88 356.84 637.88Z" stroke="#FEECD0" stroke-opacity="0.3" stroke-miterlimit="10"/>
<path d="M733.15 747.741C687.85 677.991 707.68 584.731 777.43 539.431C822.73 609.181 802.9 702.441 733.15 747.741Z" stroke="#FEECD0" stroke-opacity="0.3" stroke-miterlimit="10"/>
<path d="M754.48 348.651C788.451 348.651 815.99 321.112 815.99 287.141C815.99 253.17 788.451 225.631 754.48 225.631C720.509 225.631 692.97 253.17 692.97 287.141C692.97 321.112 720.509 348.651 754.48 348.651Z" stroke="#FEECD0" stroke-opacity="0.3" stroke-miterlimit="10"/>
<path d="M602.49 541.291H477.99L452.41 655.971H602.49C629.35 655.971 652.61 637.331 658.45 611.121C666.44 575.301 639.19 541.301 602.49 541.301V541.291Z" stroke="#FEECD0" stroke-opacity="0.3" stroke-miterlimit="10"/>
<path d="M661.27 207.321H505.19C478.33 207.321 455.07 225.961 449.23 252.171C441.24 287.991 468.49 321.991 505.19 321.991H635.69L661.27 207.311V207.321Z" stroke="#FEECD0" stroke-opacity="0.3" stroke-miterlimit="10"/>
<path d="M364.75 345.131C329.75 345.131 299.43 369.391 291.75 403.531L275.59 475.371H397.11L412.87 405.281C419.81 374.441 396.35 345.131 364.74 345.131H364.75Z" stroke="#FEECD0" stroke-opacity="0.3" stroke-miterlimit="10"/>
<path d="M743.75 377.261C708.75 377.261 678.43 401.521 670.75 435.661L654.59 507.501H776.11L791.87 437.411C798.81 406.571 775.35 377.261 743.74 377.261H743.75Z" stroke="#FEECD0" stroke-opacity="0.3" stroke-miterlimit="10"/>
<path d="M238.939 260.141C212.339 260.141 189.299 278.581 183.469 304.521L151.989 444.501H236.679L269.539 298.371C273.949 278.771 259.039 260.131 238.949 260.131L238.939 260.141Z" stroke="#FEECD0" stroke-opacity="0.3" stroke-miterlimit="10"/>
<path d="M53.0093 417.751C90.6093 417.751 123.189 391.691 131.439 355.001L146.619 287.501H25.0992L8.35925 361.931C1.92925 390.541 23.6893 417.741 53.0093 417.741V417.751Z" stroke="#FEECD0" stroke-opacity="0.3" stroke-miterlimit="10"/>
<path d="M165.99 490.311H62.9496C36.0896 490.311 12.8296 508.951 6.98963 535.161C-1.00036 570.981 26.2496 604.981 62.9496 604.981H165.99C192.85 604.981 216.11 586.341 221.95 560.131C229.94 524.311 202.69 490.311 165.99 490.311Z" stroke="#FEECD0" stroke-opacity="0.3" stroke-miterlimit="10"/>
<path d="M770.28 190.53C808.106 190.53 838.77 166.363 838.77 136.55C838.77 106.738 808.106 82.5703 770.28 82.5703C732.454 82.5703 701.79 106.738 701.79 136.55C701.79 166.363 732.454 190.53 770.28 190.53Z" stroke="#FEECD0" stroke-opacity="0.3" stroke-miterlimit="10"/>
<path d="M778.189 -102.229C743.189 -102.229 712.869 -77.9695 705.189 -43.8295L689.029 28.0104H810.549L826.309 -42.0795C833.249 -72.9195 809.789 -102.229 778.179 -102.229H778.189Z" stroke="#FEECD0" stroke-opacity="0.3" stroke-miterlimit="10"/>
<path d="M579.44 42.9609H476.4C449.54 42.9609 426.28 61.6009 420.44 87.8109C412.45 123.631 439.7 157.631 476.4 157.631H579.44C606.3 157.631 629.56 138.991 635.4 112.781C643.39 76.9609 616.14 42.9609 579.44 42.9609Z" stroke="#FEECD0" stroke-opacity="0.3" stroke-miterlimit="10"/>
<path d="M126.05 32.6009C169.144 32.6009 204.079 12.0686 204.079 -13.2592C204.079 -38.5869 169.144 -59.1191 126.05 -59.1191C82.9548 -59.1191 48.0195 -38.5869 48.0195 -13.2592C48.0195 12.0686 82.9548 32.6009 126.05 32.6009Z" stroke="#FEECD0" stroke-opacity="0.3" stroke-miterlimit="10"/>
<path d="M-56.6106 190.53C-18.7846 190.53 11.8794 166.363 11.8794 136.55C11.8794 106.738 -18.7846 82.5703 -56.6106 82.5703C-94.4366 82.5703 -125.101 106.738 -125.101 136.55C-125.101 166.363 -94.4366 190.53 -56.6106 190.53Z" stroke="#FEECD0" stroke-opacity="0.3" stroke-miterlimit="10"/>
<path d="M319.709 300.39C274.409 230.64 294.239 137.38 363.989 92.0801C409.289 161.83 389.459 255.09 319.709 300.39Z" stroke="#FEECD0" stroke-opacity="0.3" stroke-miterlimit="10"/>
<path d="M189.05 93.9404H64.5497L38.9697 208.62H189.05C215.91 208.62 239.17 189.98 245.01 163.77C253 127.95 225.75 93.9504 189.05 93.9504V93.9404Z" stroke="#FEECD0" stroke-opacity="0.3" stroke-miterlimit="10"/>
<path d="M-48.7004 -102.229C-83.7004 -102.229 -114.02 -77.9695 -121.7 -43.8295L-137.86 28.0104H-16.3403L-0.580383 -42.0795C6.35962 -72.9195 -17.1004 -102.229 -48.7104 -102.229H-48.7004Z" stroke="#FEECD0" stroke-opacity="0.3" stroke-miterlimit="10"/>
<path d="M330.3 -70.0898C295.3 -70.0898 264.98 -45.8299 257.3 -11.6899L241.14 60.1501H362.66L378.42 -9.93988C385.36 -40.7799 361.9 -70.0898 330.29 -70.0898H330.3Z" stroke="#FEECD0" stroke-opacity="0.3" stroke-miterlimit="10"/>
</g>
</svg>
